<svg width="3873" height="655" xmlns="http://www.w3.org/2000/svg" xmlns:xlink="http://www.w3.org/1999/xlink" xml:space="preserve" overflow="hidden"><g transform="translate(-476 -770)"><g><path d="M1262.26 911.961 1262.26 903.67 1369.46 903.67 1369.46 952.603 1262.26 911.961ZM1523.02 1010.92 1523.02 903.67 1630.21 903.67 1630.21 1051.56 1523.02 1010.92ZM1785.96 1110.68 1785.96 1002.08 1675.28 1002.08 1675.28 903.67 1912.64 903.67C1936.81 903.67 1960.01 913.185 1977.12 930.311 1994.22 947.438 2003.82 970.681 2003.82 994.876L2003.82 1002.08 1893.15 1002.08 1893.15 1151.33 1785.96 1110.68ZM1182.76 1266.18C1166.43 1277.74 1147.35 1286.84 1125.51 1293.64 1108.88 1298.67 1091.02 1301.8 1071.94 1302.88L1071.98 1301.39 1070.81 1296.63C1068.41 1290.51 1062.99 1286.03 1056.48 1284.8 1056.48 1284.8 997.104 1274.07 972.207 1270.4 950.735 1229.21 950.224 1229.35 947.834 1227.04L942.284 1222.96 936.406 1220.1C932.594 1218.74 928.416 1217.93 924.169 1217.79 919.909 1217.66 915.585 1218.34 911.503 1219.56L905.189 1222.28 899.209 1226.49C898.022 1227.44 897.267 1227.99 894.599 1232.2 892.455 1229.62 890.377 1227.04 888.364 1224.32L861.64 1020.02C861.715 1019.89 861.789 1019.75 861.864 1019.48 870.602 998.818 882.187 980.332 896.619 963.885L970.585 1042.04C967.715 1047.34 965.275 1052.92 963.267 1058.9 959.018 1071.67 956.894 1085.81 956.894 1101.31 956.894 1117.48 959.018 1132.16 963.267 1145.34 967.903 1158.12 974.277 1169.13 982.39 1178.37 990.889 1187.62 1001.13 1194.82 1013.1 1199.85 1025.07 1204.47 1038.4 1206.78 1053.08 1206.78 1063.52 1206.78 1072.78 1206.38 1080.9 1205.56 1089.01 1204.47 1096.35 1202.71 1102.91 1200.39 1106.97 1198.63 1110.82 1196.59 1114.43 1194.01L1182.76 1266.18ZM537.72 1289.56C503.502 1276.78 479.057 1243.89 478.823 1205.29L478.823 903.942 586.02 903.942 586.02 1162.74C586.02 1181.37 601.191 1196.59 619.904 1196.59L755.676 1196.59 751.809 1228.53C751.537 1228.26 751.258 1228.12 750.954 1227.85 742.992 1222.01 732.418 1219.56 722.656 1220.92 720.255 1221.19 717.91 1221.73 715.674 1222.55L708.864 1225.54 702.462 1230.3 697.081 1237.23C691.134 1247.42 685.31 1257.76 679.418 1268.09L552.433 1280.05C546.161 1280.59 540.738 1284.26 537.72 1289.56ZM758.697 1268.63C760.583 1271.35 762.686 1274.2 765.037 1277.46L805.928 940.098C806.692 935.069 812.012 931.263 818.37 931.263L818.59 931.263C825.487 931.263 831.319 935.341 832.074 940.778L878.594 1296.36C897.07 1264.69 904.311 1251.91 907.726 1246.2 910.017 1242.4 910.587 1241.72 911.67 1240.76 918.276 1235.06 929.303 1235.87 934.864 1241.04 937.01 1243.08 936.733 1243.35 956.204 1280.73 957.231 1282.77 958.312 1284.8 959.453 1286.98 959.757 1287.66 960.454 1288.07 961.252 1288.07 963.449 1288.2 969.595 1289.02 977.734 1290.38 1004.58 1294.73 1053.08 1303.56 1053.08 1303.56 1053.22 1303.83 957.057 1302.88 952.383 1302.88 943.09 1302.88 943.206 1307.23 924.472 1264.28 884.698 1383.76 879.981 1412.85 875.133 1418.01 868.14 1425.49 864.403 1424.94 862.751 1424.81 853.975 1424.26 848.01 1418.96 845.932 1409.18 845.066 1405.1 827.661 1290.38 825.771 1276.38 823.807 1261.83 822.435 1247.15 820.471 1232.61 818.76 1241.85 817.362 1251.09 815.65 1260.34 814.903 1264.28 814.809 1264.28 805.621 1310.63 803.839 1319.6 802.165 1328.57 800.293 1337.54 797.697 1349.91 779.931 1356.84 766.344 1348.82 766.289 1348.82 763.853 1347.06 763.811 1347.06 763.076 1346.24 762.232 1345.7 761.763 1344.75 753.41 1330.07 745.39 1311.85 737.237 1295.13 733.765 1287.93 730.27 1281.13 726.715 1274.75 719.816 1285.48 716.851 1291.33 714.494 1295.13 712.664 1298.12 711.2 1299.89 708.546 1302.07 703.831 1305.74 697.915 1305.19 697.342 1305.19 689.63 1304.65 555.289 1299.62 554.21 1298.94L688.755 1286.3C690.116 1286.3 691.314 1285.62 691.883 1284.67 699.156 1272.03 706.262 1259.39 713.551 1246.75 718.033 1239 731.535 1237.09 739.599 1243.08 742.34 1245.11 742.228 1245.66 758.697 1268.63ZM819.3 770.871C847.878 770.871 871.08 794.114 871.08 822.658 871.08 851.339 847.878 874.446 819.3 874.446 790.72 874.446 767.518 851.339 767.518 822.658 767.518 794.114 790.72 770.871 819.3 770.871Z" fill="#2E5FA9" fill-rule="evenodd" fill-opacity="1"/><path d="M997.295 1013.26 926.103 938.161C940.305 927.297 955.932 918.333 972.985 911.271 998.103 900.814 1025.35 895.653 1054.72 895.653 1077.9 895.653 1100.32 899.456 1121.96 907.197 1143.99 914.938 1163.7 926.346 1181.09 941.42 1198.48 956.495 1211.81 974.964 1221.08 996.965L1133.55 1045.58C1128.14 1035.67 1121.77 1026.98 1114.42 1019.64 1107.47 1012.31 1098.77 1006.61 1088.34 1002.8 1077.9 998.595 1065.15 996.422 1050.08 996.422 1036.17 996.422 1023.61 999.138 1012.4 1004.57 1007.01 1006.88 1001.97 1009.87 997.295 1013.26ZM1213.17 1241.01 1122.23 1145.13 1121.96 1108.19 1226.3 1108.19 1226.3 1224.03C1222.44 1229.87 1218.06 1235.58 1213.17 1241.01ZM1371.22 1294.65 1263.98 1294.65 1263.98 952.828 1371.22 993.434 1371.22 1050.88 1522.79 1050.88 1632.07 1092.3 1632.07 1294.65 1524.83 1294.65 1524.83 1149.34 1371.22 1149.34 1371.22 1294.65ZM1895.1 1294.65 1787.87 1294.65 1787.87 1151.24 1895.1 1191.85 1895.1 1294.65Z" fill="#5D9FD2" fill-rule="evenodd" fill-opacity="1"/><text fill="#2D5FA9" fill-opacity="1" font-family="Chillax Semibold,Chillax Semibold_MSFontService,sans-serif" font-style="normal" font-variant="normal" font-weight="600" font-stretch="normal" font-size="128" text-anchor="start" direction="ltr" writing-mode="lr-tb" unicode-bidi="normal" text-decoration="none" transform="matrix(1 0 0 1 2181.83 957)">Laboratory for</text><text fill="#5E9FD3" fill-opacity="1" font-family="Chillax Semibold,Chillax Semibold_MSFontService,sans-serif" font-style="normal" font-variant="normal" font-weight="600" font-stretch="normal" font-size="128" text-anchor="start" direction="ltr" writing-mode="lr-tb" unicode-bidi="normal" text-decoration="none" transform="matrix(1 0 0 1 3127.72 957)">Intelligent</text><text fill="#2D5FA9" fill-opacity="1" font-family="Chillax Semibold,Chillax Semibold_MSFontService,sans-serif" font-style="normal" font-variant="normal" font-weight="600" font-stretch="normal" font-size="128" text-anchor="start" direction="ltr" writing-mode="lr-tb" unicode-bidi="normal" text-decoration="none" transform="matrix(1 0 0 1 2181.83 1130)">Global Health &amp; Humanitarian</text><text fill="#2D5FA9" fill-opacity="1" font-family="Chillax Semibold,Chillax Semibold_MSFontService,sans-serif" font-style="normal" font-variant="normal" font-weight="600" font-stretch="normal" font-size="128" text-anchor="start" direction="ltr" writing-mode="lr-tb" unicode-bidi="normal" text-decoration="none" transform="matrix(1 0 0 1 2181.83 1302)">Response Technologies</text></g></g></svg>